<svg xmlns="http://www.w3.org/2000/svg" width="104" height="11" viewBox="0 0 104 11">
    <path fill="#B1CC0C" fill-rule="nonzero" d="M12.73 4.395a.226.226 0 0 0-.1-.212C12.18 3.886 6.504.05 6.483.036a.215.215 0 0 0-.238 0C6.226.046.55 3.886.102 4.183a.223.223 0 0 0-.1.212v6.185a.156.156 0 0 0 .071.136.14.14 0 0 0 .148 0l.057-.032h.008l.021-.015c.196-.127 1.561-1.014 1.885-1.226l.038-.025.03-.02a.247.247 0 0 0 .11-.212v-3.62a.217.217 0 0 1 .077-.176l.043-.031L6.253 2.82a.218.218 0 0 1 .114-.036c.04 0 .08.013.114.036l3.763 2.538.044.03c.051.043.08.108.077.177v3.62a.247.247 0 0 0 .11.212l1.953 1.272c.014.01.086.051.087.052a.14.14 0 0 0 .149 0 .156.156 0 0 0 .071-.137V4.401l-.005-.006zm8.466-1.1a3.041 3.041 0 0 0-1.298.288c-.378.17-.715.428-.985.753h-.036V1a.239.239 0 0 0-.137-.237c-.047-.016-1.476-.437-2.052-.605a.184.184 0 0 0-.161.035.204.204 0 0 0-.075.155v10.248c.001.13.1.235.224.236h1.978a.233.233 0 0 0 .223-.241V6.456a1.33 1.33 0 0 1 .083-.51 1.321 1.321 0 0 1 1.246-.8 1.26 1.26 0 0 1 1.025.482 1.4 1.4 0 0 1 .273 1.144v3.817a.233.233 0 0 0 .223.241h2.047a.233.233 0 0 0 .223-.241v-4.07c0-2.215-1.211-3.225-2.805-3.225l.004.002zm32.867-.001a3.637 3.637 0 0 0-2.851 1.03 4.026 4.026 0 0 0-1.204 2.903c0 2.307 1.56 3.769 4.285 3.769a8.718 8.718 0 0 0 2.726-.405.242.242 0 0 0 .132-.29c-.006-.035-.225-1.06-.225-1.06a.238.238 0 0 0-.094-.161.217.217 0 0 0-.176-.037l-.042.008c-.641.16-1.3.238-1.96.231-1.164 0-2.18-.452-2.263-1.401h4.955a.246.246 0 0 0 .25-.222c0-.02.007-.043.009-.065.024-.205.037-.411.037-.617a3.554 3.554 0 0 0-.982-2.705 3.202 3.202 0 0 0-2.596-.973l-.001-.005zm-1.688 3.02c.054-.848.73-1.504 1.54-1.493.384-.027.76.122 1.031.408.272.287.411.682.383 1.085h-2.956.002zm-22.25-3.023c-2.577 0-4.285 1.522-4.285 3.903 0 2.381 1.805 3.798 4.153 3.798 2.15 0 4.236-1.236 4.236-3.934 0-2.215-1.642-3.767-4.105-3.767zm-.066 6.058c-1.068 0-1.641-.949-1.641-2.214 0-1.087.443-2.216 1.64-2.216 1.132 0 1.593 1.115 1.593 2.216 0 1.325-.624 2.214-1.592 2.214zm15.43-6.058a3.104 3.104 0 0 0-1.527.361 3.31 3.31 0 0 0-1.034.89h-.032c-.438-.832-1.297-1.32-2.2-1.251a2.836 2.836 0 0 0-2.43 1.16v-.754a.233.233 0 0 0-.222-.241h-1.757a.233.233 0 0 0-.224.24v6.883a.234.234 0 0 0 .224.242h1.985a.234.234 0 0 0 .22-.242V6.525a1.419 1.419 0 0 1 .102-.572c.187-.503.65-.832 1.164-.83.788 0 1.149.636 1.149 1.568v3.888a.233.233 0 0 0 .223.242h1.982a.234.234 0 0 0 .224-.242v-4.07c0-.2.035-.4.101-.587.187-.492.646-.81 1.15-.8.803 0 1.181.619 1.181 1.688v3.769a.233.233 0 0 0 .224.242h1.98a.234.234 0 0 0 .225-.242V6.481c0-2.202-1.165-3.197-2.708-3.197v.007zm47.706 1.666V3.764c0-.13-.1-.236-.224-.24h-.866a.234.234 0 0 0-.22.242v6.811a.235.235 0 0 0 .222.242h.982a.233.233 0 0 0 .224-.241v-3.64c.003-.208.025-.415.065-.618.154-.994.979-1.719 1.938-1.702.085 0 .16 0 .232.006a.218.218 0 0 0 .185-.056.242.242 0 0 0 .076-.185V3.63a.392.392 0 0 0-.01-.08.218.218 0 0 0-.184-.173 1.383 1.383 0 0 0-.218-.012c-.979 0-1.854.636-2.2 1.597l-.002-.006zM80.246 3.366c-1.042-.052-2.035.467-2.625 1.37v-.965a.243.243 0 0 0-.064-.169.22.22 0 0 0-.16-.07h-.882a.22.22 0 0 0-.16.07.243.243 0 0 0-.065.169v6.815c0 .13.098.238.222.241h1a.233.233 0 0 0 .223-.24V6.44c-.003-.21.032-.42.101-.618.31-.835 1.084-1.377 1.937-1.356a1.726 1.726 0 0 1 1.412.615c.357.419.514.985.426 1.54v3.964a.234.234 0 0 0 .225.242h.997a.233.233 0 0 0 .223-.242V6.471a2.905 2.905 0 0 0-.722-2.23 2.618 2.618 0 0 0-2.084-.875h-.004zm-16.469 1.07c.476-.01.95.066 1.402.225l.024.01c.057.033.125.04.186.016a.232.232 0 0 0 .135-.135l.186-.577a.242.242 0 0 0-.145-.299l-.023-.008a5.562 5.562 0 0 0-1.768-.282c-2.592 0-4.267 1.627-4.267 3.873 0 2.245 1.56 3.738 3.956 3.738a5.97 5.97 0 0 0 2.091-.358.248.248 0 0 0 .135-.305l-.005-.02-.129-.513a.211.211 0 0 0-.1-.143.193.193 0 0 0-.17-.012l-.018.009a4.303 4.303 0 0 1-1.542.27c-.972.054-1.892-.463-2.388-1.343a2.866 2.866 0 0 1 .025-2.844c.511-.87 1.44-1.37 2.411-1.297l.004-.004zm23.682-2.38a.204.204 0 0 0-.078-.168.183.183 0 0 0-.176-.028l-.034.01-.934.271a.24.24 0 0 0-.189.242v1.152h-1.01a.232.232 0 0 0-.222.241v.53a.232.232 0 0 0 .222.24h1.01v3.98a2.55 2.55 0 0 0 .558 1.898c.428.4.988.605 1.56.573.367.004.734-.042 1.09-.135a.237.237 0 0 0 .176-.234v-.049l-.03-.489a.243.243 0 0 0-.071-.168.22.22 0 0 0-.164-.065 4.112 4.112 0 0 1-.623.038c-.808 0-1.083-.512-1.083-1.415V4.542h1.843a.22.22 0 0 0 .16-.07.243.243 0 0 0 .064-.169v-.53a.233.233 0 0 0-.224-.24H87.46V2.047l.001.008zM74.132 7.223c0-.016 0-.038.007-.054.012-.123.018-.246.019-.37a3.337 3.337 0 0 0-.903-2.496 3.01 3.01 0 0 0-2.38-.94 3.477 3.477 0 0 0-2.692 1.1 3.85 3.85 0 0 0-1.033 2.833c0 2.2 1.46 3.693 3.905 3.693a7.447 7.447 0 0 0 2.12-.284c.126-.036.238-.073.335-.106.054-.02.1-.062.124-.117a.24.24 0 0 0 .009-.175l-.005-.019-.127-.49a.21.21 0 0 0-.103-.137.193.193 0 0 0-.166-.01.098.098 0 0 0-.02.007c-.015.006-.031.01-.046.015-.62.2-1.268.294-1.918.277a2.333 2.333 0 0 1-1.914-.613 2.587 2.587 0 0 1-.812-1.92h5.374a.229.229 0 0 0 .23-.193l-.004-.001zm-1.365-.754h-4.224c.092-1.214 1.055-2.151 2.215-2.156.551-.04 1.09.176 1.476.592.386.415.578.987.526 1.564h.007zm31.2.755c0-.016 0-.037.008-.054.012-.123.019-.246.02-.37a3.336 3.336 0 0 0-.903-2.496 3.009 3.009 0 0 0-2.38-.94 3.477 3.477 0 0 0-2.693 1.1 3.85 3.85 0 0 0-1.033 2.833c0 2.2 1.46 3.693 3.906 3.693a7.443 7.443 0 0 0 2.12-.284c.127-.036.239-.073.334-.106.055-.02.1-.062.125-.117a.238.238 0 0 0 .008-.175v-.018l-.128-.49a.21.21 0 0 0-.103-.139.193.193 0 0 0-.168-.009l-.018.007a5.781 5.781 0 0 1-1.965.293 2.332 2.332 0 0 1-1.914-.613 2.586 2.586 0 0 1-.812-1.92h5.375a.228.228 0 0 0 .229-.194l-.007-.001zm-1.361-.754h-4.218c.093-1.214 1.056-2.151 2.216-2.156.55-.04 1.09.177 1.476.592.385.415.577.987.526 1.564z"/>
</svg>
