<svg xmlns="http://www.w3.org/2000/svg" width="49" height="15" viewBox="0 0 49 15">
    <g fill="none" fill-rule="evenodd">
        <path fill="#231F20" fill-rule="nonzero" d="M44.68 11.118v-.714c.16.021.322.034.483.036h.425a3.61 3.61 0 0 1 .41-.052c.285-.052.518-.125.788-.182.27-.058.518-.151.705-.214l.077-.036.068-.032-.13.876a2.639 2.639 0 0 1-.357.115 2.93 2.93 0 0 1-.363.073c-.275.057-.55.088-.83.13-.266.032-.535.05-.803.052h-.482l.01-.052zm-.01-4.603v-.677h2.468v-.271a2.029 2.029 0 0 0-.59-1.528c-.42-.395-.982-.6-1.556-.568h-.327v-.803h.208a3 3 0 0 1 2.42 1.043 3.43 3.43 0 0 1 .861 2.304V6.348a.335.335 0 0 0 0 .115l-3.483.052zm0-3.795v.761a2.856 2.856 0 0 0-1.555.522 2.163 2.163 0 0 0-.824 1.438c0 .146-.052.282-.067.397h2.478v.63H42.11c0 1.564.316 2.607.943 3.128a3.243 3.243 0 0 0 1.649.787v.72a4.197 4.197 0 0 1-2.421-.991c-.788-.667-1.172-1.751-1.172-3.253 0-1.37.327-2.377 1.037-3.023a3.808 3.808 0 0 1 2.224-1.152h.264l.037.036zm-27.853 8.487v-.72c.171.023.345.034.518.032h.4c.155 0 .29-.037.435-.047.27-.052.518-.125.772-.193.238-.067.471-.147.7-.24h.041l.089-.042-.104.87c-.114.032-.244.09-.363.12a1.795 1.795 0 0 1-.358.069c-.28.062-.575.099-.84.135a5.909 5.909 0 0 1-.788.052h-.518l.016-.036zM16.8 6.599v-.673h2.452V5.66a2.034 2.034 0 0 0-.59-1.563 2.17 2.17 0 0 0-1.556-.584 2.032 2.032 0 0 1-.311.031v-.787h.192a2.973 2.973 0 0 1 2.426 1.042 3.42 3.42 0 0 1 .891 2.31V6.573l-3.504.026zm8.512-3.451l.125.876c-.15-.037-.348-.094-.57-.141a3.971 3.971 0 0 0-.721-.11 2.13 2.13 0 0 0-.29-.03h-.296a2.394 2.394 0 0 0-1.089.228.777.777 0 0 0-.497.74v.1l.026.052v.057c.17.413.426.785.751 1.09.29.248.596.474.918.677l.13.089c.041.037.086.07.134.099.336.207.649.45.933.724.352.358.627.784.81 1.252v.38a1.498 1.498 0 0 1-.83 1.522 4.69 4.69 0 0 1-1.872.391h-.503c-.29 0-.585-.062-.86-.094-.275-.031-.519-.099-.72-.146l-.11-.928.063.047h.046c.187.073.43.141.716.225.277.083.562.14.85.172.097.017.196.025.295.026h.311c.245.007.489-.02.726-.079.19-.043.368-.13.519-.255a1.93 1.93 0 0 0 .181-.198c.036-.073.093-.125.124-.209.032-.083.047-.14.063-.192a.592.592 0 0 0 0-.188V9.23a2.199 2.199 0 0 0-.954-1.282 27.4 27.4 0 0 1-1.872-1.564l-.067-.057-.036-.053a4.77 4.77 0 0 1-.55-.922c-.13-.24-.2-.509-.207-.782a1.277 1.277 0 0 1 .798-1.199 4.334 4.334 0 0 1 1.882-.391H24.613l.363.047.358.073-.02.047zm3.033-1.825v1.653h2.276v.76h-2.27V9.31c0 .33.118.647.33.897.19.183.443.284.706.281a2.46 2.46 0 0 0 .467-.041c.175-.05.348-.11.518-.178a.517.517 0 0 0 .192-.078c.076-.028.154-.051.233-.068v.584a.704.704 0 0 1-.487.282 4.92 4.92 0 0 1-.918.13h-.109a.557.557 0 0 1-.14 0h-.14a2.483 2.483 0 0 1-1.068-.307 1.084 1.084 0 0 1-.56-.845V3.711h-.995v-.73h.996V1.417l.969-.094zm2.81 1.642h1.114l2.655 7.22 2.778-7.23h1.12l-4.018 9.623a1.779 1.779 0 0 1-.114.328c-.057.104-.119.209-.192.328a4.102 4.102 0 0 1-.943 1.132 2.237 2.237 0 0 1-1.467.52 2.805 2.805 0 0 1-.622-.062 4.874 4.874 0 0 1-.669-.208l-.124-1.043c.2.17.433.296.684.37.181.066.372.097.565.094.472.012.92-.21 1.197-.594.325-.41.599-.858.814-1.335.088-.166.13-.333.213-.474.083-.14.124-.281.187-.427l-3.178-8.242zM40.378.13v10.795h-.855L39.486.145l.892-.015zM.461.26H1.6v10.03h5.184v.766H.492L.461.26zm16.345 2.497v.808a2.928 2.928 0 0 0-1.586.521 2.231 2.231 0 0 0-.824 1.475c0 .146-.031.271-.052.402h2.473v.636h-2.592c0 1.563.337 2.606.964 3.127.464.41 1.034.68 1.643.782v.72a4.223 4.223 0 0 1-2.416-.99c-.788-.689-1.176-1.773-1.187-3.264v-.031c0-1.356.337-2.356 1.037-3.003a3.948 3.948 0 0 1 2.219-1.157.897.897 0 0 1 .264-.026h.057zm-9.331.287h.995l.037 7.996h-.985l-.047-7.996zm2.747.74H9.186v-.756h1.005V1.74c-.041-.497.18-.98.581-1.271.37-.246.793-.4 1.234-.449.08.006.159.006.238 0h1.296a.712.712 0 0 0 .218 0l.12.735h-.203c-.207 0-.4-.057-.586-.073-.16-.02-.32-.033-.482-.036a1.504 1.504 0 0 0-1.104.417 1.483 1.483 0 0 0-.42.829v1.146h2.286v.74h-2.28v7.225h-.846l-.02-7.22z"/>
        <path fill="#ED3024" d="M7.947 2.277a.655.655 0 0 0 .632-.656.64.64 0 0 0-.638-.642.64.64 0 0 0-.637.642.648.648 0 0 0 .643.656"/>
    </g>
</svg>
