<svg xmlns="http://www.w3.org/2000/svg" width="24" height="24" viewBox="0 0 24 24">
    <g fill="none" fill-rule="evenodd">
        <path d="M0 0h24v24H0z"/>
        <path fill="#212121" d="M18.222 3.5H5.778C4.79 3.5 4 4.271 4 5.214v12c0 .943.791 1.715 1.778 1.715h3.555L12 21.5l2.667-2.571h3.555c.978 0 1.778-.772 1.778-1.715v-12c0-.943-.8-1.714-1.778-1.714zM12.89 17.214H11.11V15.5h1.778v1.714zm1.84-6.643l-.8.789c-.64.626-1.04 1.14-1.04 2.426H11.11v-.429c0-.943.4-1.8 1.04-2.426l1.102-1.08c.33-.308.525-.737.525-1.208 0-.943-.8-1.714-1.778-1.714s-1.778.771-1.778 1.714H8.444c0-1.894 1.592-3.429 3.556-3.429s3.556 1.535 3.556 3.429c0 .754-.32 1.44-.827 1.928z"/>
    </g>
</svg>
