<svg xmlns="http://www.w3.org/2000/svg" width="24" height="24" viewBox="0 0 24 24">
    <g fill="none" fill-rule="evenodd">
        <path d="M0 0h24v24H0z"/>
        <path fill="#212121" d="M7.218 10.924a13.465 13.465 0 0 0 5.858 5.858l1.955-1.955c.24-.24.596-.32.907-.214a10.14 10.14 0 0 0 3.173.507c.489 0 .889.4.889.889v3.102c0 .489-.4.889-.889.889C10.764 20 4 13.236 4 4.889 4 4.4 4.4 4 4.889 4H8c.489 0 .889.4.889.889 0 1.111.178 2.178.507 3.173a.892.892 0 0 1-.223.907l-1.955 1.955z"/>
    </g>
</svg>
