<svg xmlns="http://www.w3.org/2000/svg" width="24" height="24" viewBox="0 0 24 24">
    <g fill="none" fill-rule="nonzero">
        <path d="M0 0h24v24H0z"/>
        <path fill="#212121" d="M7.943 2.077l8-.077A6 6 0 0 1 22 8v7.943a6 6 0 0 1-6 6H8a6 6 0 0 1-6-6V8.076a6 6 0 0 1 5.943-6zM7.896 3.8a4 4 0 0 0-4 4v8.267a4 4 0 0 0 4 4h8.223a4 4 0 0 0 4-4V7.8a4 4 0 0 0-4-4H7.896zM12 17.068a5.125 5.125 0 1 1 0-10.25 5.125 5.125 0 0 1 0 10.25zm0-1.834a3.292 3.292 0 1 0 0-6.583 3.292 3.292 0 0 0 0 6.583zm5.193-7.339a1.167 1.167 0 1 1 0-2.333 1.167 1.167 0 0 1 0 2.333z"/>
    </g>
</svg>
