<svg xmlns="http://www.w3.org/2000/svg" width="35" height="9" viewBox="0 0 35 9">
    <g fill="none" fill-rule="evenodd">
        <path fill="#E4002B" d="M31.529 4.09L34.785.28h-3.387l-1.663 2.113L28.084.294 28.073.28h-3.387l3.256 3.81-3.471 4.38h3.314l1.95-2.493 1.94 2.479.01.014H35z"/>
        <path fill="#303AB2" d="M23.142 8.47H20.66v-.886c-.449.797-1.48 1.166-2.452 1.166-2.631 0-4.171-2.036-4.171-4.383C14.037 1.682 15.995 0 18.208 0c1.36 0 2.123.65 2.452 1.15V.28h2.482v8.19zm-6.623-4.058c0 .752.568 2.05 2.063 2.05.882 0 1.42-.412 1.734-.914.21-.325.314-.679.344-1.048a2.08 2.08 0 0 0-.21-1.077c-.269-.56-.837-1.136-1.883-1.136-1.42 0-2.048 1.18-2.048 2.11v.015zM0 .28h2.317v.87s.15-.294.509-.575C3.184.28 3.768 0 4.635 0c.568 0 1.285.147 1.898.782.18.177.344.398.494.679a3.36 3.36 0 0 1 .598-.709C8.118.31 8.79 0 9.658 0c.583 0 1.51.133 2.183.826.777.812.897 1.358.897 3.173v4.47h-2.482V4.118c0-.34 0-.782-.164-1.151-.15-.384-.464-.664-1.107-.664-.687 0-1.031.31-1.196.679-.18.368-.18.782-.18 1.018v4.47H5.13V4.014c0-.22 0-.649-.15-1.018-.165-.383-.464-.693-1.092-.693-.703 0-1.046.325-1.226.723-.18.398-.18.84-.18 1.092V8.47H0V.28z"/>
    </g>
</svg>
