<svg xmlns="http://www.w3.org/2000/svg" width="24" height="24" viewBox="0 0 24 24">
    <g fill="none" fill-rule="nonzero">
        <path d="M0 0h24v24H0z"/>
        <path fill="#212121" d="M8.089 20.5c7.93 0 12.265-6.542 12.265-12.212 0-.186 0-.373-.009-.551A8.81 8.81 0 0 0 22.5 5.512a8.78 8.78 0 0 1-2.476.676 4.293 4.293 0 0 0 1.895-2.376 8.753 8.753 0 0 1-2.736 1.04A4.299 4.299 0 0 0 16.036 3.5c-2.378 0-4.309 1.923-4.309 4.29 0 .338.036.668.117.98a12.247 12.247 0 0 1-8.887-4.487 4.29 4.29 0 0 0-.58 2.154c0 1.487.759 2.804 1.921 3.57a4.249 4.249 0 0 1-1.949-.535v.054c0 2.082 1.484 3.81 3.46 4.21a4.315 4.315 0 0 1-1.949.07 4.302 4.302 0 0 0 4.023 2.982A8.69 8.69 0 0 1 1.5 18.56a12.049 12.049 0 0 0 6.589 1.94z"/>
    </g>
</svg>
